#!OML:ASF F:\VICON\USERDATA\INSTALL\Justin_Nancy\Justin_Nancy.ASF
:FULLY-SPECIFIED
:DEGREES
351
root -0.143877 17.5419 24.4557 1.24253 0.867238 0.460382
lowerback 6.27513 -1.3116 -2.87013
upperback 1.1071 -1.86313 2.92146
thorax -2.18469 -0.905239 4.78937
lowerneck -17.5798 -2.93743 -9.44434
upperneck 19.183 -2.74485 5.66244
head 9.14377 -1.36238 3.15592
rclavicle -2.29596e-014 2.70347e-014
rhumerus -35.1932 -19.9344 -74.9446
rradius 24.1601
rwrist 13.4392
rhand -13.0695 10.8377
rfingers 7.12502
rthumb 13.0262 -18.7356
lclavicle -2.29596e-014 2.70347e-014
lhumerus -27.0556 11.2151 84.2543
lradius 30.4014
lwrist -9.68145
lhand -13.9452 26.8161
lfingers 7.12502
lthumb 12.182 416.441
rfemur -18.2239 2.95659 22.4521
rtibia 17.6505
rfoot 1.78739 -3.64041
rtoes 6.24316
lfemur 0.420084 -5.4236 -22.5012
ltibia 45.1082
lfoot 9.74794 -7.34249
ltoes -10.9897
352
root -0.157789 17.5744 24.6199 1.21893 1.09152 0.125764
lowerback 6.31919 -1.31501 -2.44374
upperback 1.12098 -1.83918 2.9378
thorax -2.21063 -0.895542 4.56356
lowerneck -17.8083 -3.01803 -9.2433
upperneck 19.2133 -2.86709 5.55833
head 9.2012 -1.41315 3.0697
rclavicle 3.04141e-014 2.06736e-014
rhumerus -35.1985 -19.5649 -75.1899
rradius 24.572
rwrist 12.9583
rhand -13.0159 10.983
rfingers 7.12502
rthumb 13.0778 -18.587
lclavicle 3.04141e-014 2.06736e-014
lhumerus -27.2414 11.1909 84.2543
lradius 30.2097
lwrist -9.46274
lhand -13.8796 26.5608
lfingers 7.12502
lthumb 12.2452 416.182
rfemur -17.177 2.7613 22.9324
rtibia 16.7845
rfoot 2.18511 -3.64668
rtoes 7.10024
lfemur -1.02068 -5.36529 -21.9359
ltibia 47.4672
lfoot 11.9539 -7.70138
ltoes -6.44547
353
root -0.175489 17.5998 24.7681 1.12402 1.16795 -0.406255
lowerback 6.55333 -1.2643 -1.83264
upperback 1.14333 -1.72977 2.9995
thorax -2.34537 -0.842438 4.28001
lowerneck -17.9422 -3.16199 -9.27192
upperneck 19.233 -3.07564 5.68616
head 9.25194 -1.49684 3.091
rclavicle -1.11319e-014 4.77083e-015
rhumerus -35.0922 -19.2267 -75.4751
rradius 24.9602
rwrist 12.6272
rhand -12.9558 10.8714
rfingers 7.12502
rthumb 13.1358 -18.6949
lclavicle -1.11319e-014 4.77083e-015
lhumerus -27.3785 11.11 84.2631
lradius 29.9409
lwrist -9.54244
lhand -13.9513 26.0703
lfingers 7.12502
lthumb 12.176 415.696
rfemur -16.0575 2.8244 23.6403
rtibia 15.9448
rfoot 2.36842 -3.73433
rtoes 8.37033
lfemur -2.51843 -5.11682 -21.0962
ltibia 49.8015
lfoot 14.0298 -8.03299
ltoes -0.97137
354
root -0.200094 17.6184 24.9093 1.11257 1.12907 -0.964978
lowerback 6.88722 -1.18805 -1.33441
upperback 0.999643 -1.58647 3.11689
thorax -2.70328 -0.766477 4.12195
lowerneck -17.5576 -3.23365 -9.44225
upperneck 19.0238 -3.21251 5.9209
head 9.12781 -1.55077 3.18143
rclavicle 8.44835e-015 1.43125e-014
rhumerus -35.2037 -18.741 -75.6549
rradius 25.3714
rwrist 12.5186
rhand -12.7449 10.5842
rfingers 7.12502
rthumb 13.3391 -18.9689
lclavicle 8.44835e-015 1.43125e-014
lhumerus -27.8894 10.9786 84.234
lradius 29.8502
lwrist -9.65955
lhand -13.9052 25.6545
lfingers 7.12502
lthumb 12.2205 415.278
rfemur -15.1567 3.07652 24.4039
rtibia 15.2311
rfoot 2.2363 -3.73189
rtoes 8.75724
lfemur -4.1445 -4.85015 -20.2056
ltibia 52.0749
lfoot 16.0228 -8.21122
ltoes 4.77075
355
root -0.223139 17.6314 25.0598 0.973158 1.03967 -1.21317
lowerback 7.04011 -1.09377 -1.21796
upperback 1.08459 -1.45102 3.18588
thorax -2.71284 -0.70062 4.11895
lowerneck -17.9104 -3.35216 -9.26111
upperneck 19.1908 -3.34726 5.69827
head 9.25436 -1.62127 3.05609
rclavicle 1.93815e-014 -3.18055e-015
rhumerus -34.8772 -18.3836 -75.8404
rradius 25.4206
rwrist 12.4964
rhand -12.6979 10.4484
rfingers 7.12502
rthumb 13.3844 -19.1016
lclavicle 1.93815e-014 -3.18055e-015
lhumerus -28.2304 10.7923 84.3316
lradius 30.053
lwrist -9.50299
lhand -13.8158 26.1596
lfingers 7.12502
lthumb 12.3067 415.777
rfemur -14.2589 3.21841 24.8394
rtibia 14.8164
rfoot 1.96515 -3.71942
rtoes 7.86879
lfemur -5.35581 -4.40956 -19.7298
ltibia 54.1514
lfoot 17.0671 -8.4719
ltoes 6.76032
356
root -0.242867 17.6356 25.2104 0.657566 0.963858 -1.528
lowerback 7.19725 -0.997002 -0.993861
upperback 1.34579 -1.30736 3.25507
thorax -2.54526 -0.636209 4.05061
lowerneck -19.3602 -3.76783 -8.72432
upperneck 20.1091 -3.80149 4.97799
head 9.8544 -1.86219 2.65136
rclavicle 7.15625e-015 -2.62396e-014
rhumerus -34.2679 -18.1527 -76.0829
rradius 25.3268
rwrist 12.2261
rhand -12.8348 10.7253
rfingers 7.12502
rthumb 13.2524 -18.8334
lclavicle 7.15625e-015 -2.62396e-014
lhumerus -28.1191 10.7585 84.439
lradius 29.9872
lwrist -9.45387
lhand -13.5447 26.6357
lfingers 7.12502
lthumb 12.5681 416.238
rfemur -13.3199 3.31791 25.3489
rtibia 14.7139
rfoot 1.63765 -3.89222
rtoes 7.87495
lfemur -6.17743 -3.81189 -19.2069
ltibia 56.0593
lfoot 16.7902 -8.85032
ltoes 3.47282
357
root -0.250417 17.6337 25.3556 0.456375 1.01791 -1.70154
lowerback 7.35823 -0.928858 -0.66111
upperback 1.43107 -1.19336 3.17975
thorax -2.5642 -0.582437 3.77564
lowerneck -18.0896 -3.86645 -9.2861
upperneck 19.0165 -4.03726 5.72619
head 9.28549 -1.93695 2.97178
rclavicle -1.18277e-014 1.82882e-014
rhumerus -34.0759 -17.9169 -76.3492
rradius 25.5857
rwrist 12.0212
rhand -13.0685 10.7074
rfingers 7.12502
rthumb 13.0272 -18.8659
lclavicle -1.18277e-014 1.82882e-014
lhumerus -28.188 10.5695 84.4227
lradius 29.8262
lwrist -9.59177
lhand -13.253 26.9819
lfingers 7.12502
lthumb 12.8493 416.566
rfemur -12.597 3.18048 25.6562
rtibia 14.7642
rfoot 1.18514 -3.90695
rtoes 7.68548
lfemur -7.0739 -3.46264 -18.9231
ltibia 57.8237
lfoot 15.7529 -8.70082
ltoes -0.343377
358
root -0.260554 17.6358 25.5018 0.433512 1.0808 -1.75757
lowerback 7.43425 -0.847867 -0.516001
upperback 1.37643 -1.07375 3.11538
thorax -2.67544 -0.522053 3.61796
lowerneck -17.1409 -3.62766 -9.38441
upperneck 18.281 -3.81857 6.05173
head 8.85012 -1.81453 3.12905
rclavicle 2.15681e-014 -3.65764e-014
rhumerus -34.1249 -17.516 -76.5169
rradius 26.0386
rwrist 11.711
rhand -12.8661 10.2034
rfingers 7.12502
rthumb 13.2223 -19.3572
lclavicle 2.15681e-014 -3.65764e-014
lhumerus -28.5914 10.6003 84.3833
lradius 29.9196
lwrist -9.9662
lhand -13.181 26.9374
lfingers 7.12502
lthumb 12.9188 416.517
rfemur -12.1425 3.06094 25.8407
rtibia 14.9874
rfoot 0.745376 -3.85452
rtoes 6.09536
lfemur -8.31481 -3.20994 -18.7684
ltibia 59.5109
lfoot 14.3493 -8.05785
ltoes -4.06272
359
root -0.28126 17.6357 25.6537 0.31431 0.974346 -2.11367
lowerback 7.5491 -0.743229 -0.207118
upperback 1.46831 -0.909067 3.16463
thorax -2.65944 -0.443163 3.47993
lowerneck -17.2593 -3.50032 -9.34501
upperneck 18.2861 -3.65584 6.1187
head 8.85939 -1.72643 3.16665
rclavicle -1.78906e-015 5.56597e-015
rhumerus -33.7465 -17.0653 -76.7789
rradius 26.1907
rwrist 11.4896
rhand -12.7739 9.96549
rfingers 7.12502
rthumb 13.3112 -19.5894
lclavicle -1.78906e-015 5.56597e-015
lhumerus -28.8092 10.5603 84.3833
lradius 29.8948
lwrist -10.111
lhand -13.8882 26.0409
lfingers 7.12502
lthumb 12.2369 415.663
rfemur -11.5645 3.33321 26.3689
rtibia 15.2455
rfoot 0.257998 -4.12298
rtoes 5.34324
lfemur -9.50592 -2.70025 -18.188
ltibia 61.1102
lfoot 12.7662 -7.07215
ltoes -6.31724
360
root -0.291316 17.6378 25.7994 0.230159 0.85316 -2.01641
lowerback 7.5889 -0.630136 -0.293875
upperback 1.55304 -0.768592 3.10879
thorax -2.60221 -0.373923 3.45695
lowerneck -17.3131 -3.73268 -9.51141
upperneck 18.2989 -3.94245 6.18516
head 8.90342 -1.86466 3.17903
rclavicle 2.78299e-015 2.3059e-014
rhumerus -33.353 -16.5774 -77.0117
rradius 26.3605
rwrist 11.1519
rhand -12.8321 10.151
rfingers 7.12502
rthumb 13.2551 -19.4076
lclavicle 2.78299e-015 2.3059e-014
lhumerus -28.841 10.7607 84.3563
lradius 29.5387
lwrist -10.2904
lhand -14.3375 25.6118
lfingers 7.12502
lthumb 11.8037 415.259
rfemur -10.9162 3.35892 26.3785
rtibia 15.2772
rfoot -0.243456 -4.17183
rtoes 4.42217
lfemur -10.6605 -2.34123 -18.2414
ltibia 62.5144
lfoot 11.3933 -6.03031
ltoes -6.29226
